<?xml version="1.0" encoding="utf-8"?>
<!-- Generator: Adobe Illustrator 21.0.2, SVG Export Plug-In . SVG Version: 6.00 Build 0)  -->
<svg version="1.1" id="Layer_1" xmlns="http://www.w3.org/2000/svg" xmlns:xlink="http://www.w3.org/1999/xlink" x="0px" y="0px"
	 viewBox="0 0 14.2 14.2" style="enable-background:new 0 0 14.2 14.2;" xml:space="preserve">
<style type="text/css">
	.st0{fill:#8C1515;}
</style>
<g>
	<path class="st0" d="M8.8,3.2l0.4-0.7l0.3,0.2L7.9,5.3c0,0,0,0,0.1,0c0,0,0,0,0.1,0h0.5c0.9,0,1.6,0.1,2.2,0.4
		c0.9,0.4,1.3,1.1,1.3,2c0,0.9-0.4,1.7-1.3,2.4c-0.6,0.5-1.4,1-2.5,1.5c-0.4-0.1-0.7-0.2-1-0.4c-0.1,0-0.2-0.1-0.3-0.1
		c-0.1,0-0.2-0.1-0.3-0.1c-1.1,0.6-2.1,0.8-2.8,0.8H3.7c0,0-0.1,0-0.2,0c-0.9-0.1-1.3-0.5-1.3-1.1c0-0.4,0.2-0.8,0.6-1
		C3.1,9.5,3.6,9.4,4,9.4c0.4,0,0.8,0,1.1,0.1l0.5-0.9h-1c-0.1,0-0.2,0-0.3,0c-0.5,0-1-0.2-1.4-0.5C2.6,7.9,2.4,7.6,2.4,7.1
		c0-0.7,0.4-1.2,1.2-1.5c0-1,0.8-2.2,2.4-3.4v0L8.8,3.2z M3.8,10.5c-0.3,0-0.6,0.1-0.8,0.2c-0.1,0.1-0.2,0.2-0.2,0.4
		c0,0.3,0.2,0.5,0.6,0.6h0.1c0,0,0.1,0,0.1,0c0.9,0,1.7-0.2,2.6-0.7v0C5.3,10.6,4.5,10.5,3.8,10.5z M6,6.6c-0.3,0-0.5,0-0.8,0
		c-0.4,0-0.7,0-0.9-0.1C4,6.4,3.8,6.2,3.7,5.9C3.4,6.1,3.3,6.3,3.3,6.5c0,0.3,0.2,0.6,0.5,0.7C4,7.4,4.3,7.5,4.7,7.5h0.4
		c0.1,0,0.3,0,0.4,0c0.1,0,0.3,0,0.4,0l0.4,0l0.5-0.9C6.6,6.6,6.3,6.6,6,6.6z M5.7,3.5H5.6C5.3,3.5,5,3.6,4.8,3.8
		C4.6,4,4.5,4.3,4.5,4.5c0,0.6,0.4,0.9,1.2,1h0.1h0.1c0,0,0.1,0,0.1,0c0.1,0,0.1,0,0.2,0h0.4c0.1,0,0.3,0,0.4,0c0.2,0,0.4,0,0.6-0.1
		l0.6-1.1C7.2,3.7,6.3,3.5,5.7,3.5z M6.7,9.9c0.2,0,0.4,0.1,0.6,0.2s0.4,0.1,0.6,0.2C8,10.1,8.1,10,8.3,9.9c0.2-0.1,0.4-0.3,0.6-0.4
		c0.2-0.2,0.2-0.3,0.2-0.5c0-0.2-0.1-0.3-0.3-0.4C8.7,8.4,8.6,8.4,8.4,8.4c-0.2,0-0.4,0-0.7,0L6.2,8.6c-0.1,0-0.1,0-0.2,0L5.5,9.5
		L6.7,9.9z M7.1,7.4c0.1,0,0.3,0,0.5-0.1c0,0,0.1,0,0.2,0c0.1,0,0.1,0,0.2,0c0.3,0,0.5,0,0.6,0c0.2,0,0.4,0,0.6,0.1
		c0.8,0.2,1.2,0.5,1.2,1.1c0,0.5-0.4,1.1-1.3,1.6c-0.1,0.1-0.2,0.1-0.4,0.2l-0.3,0.2l0.5,0.2c0.1,0,0.2,0.1,0.3,0.1
		c0.1,0,0.2,0.1,0.2,0.1c0,0,0.1,0,0.1-0.1C10.5,9.9,11,9.2,11,8.3c0-0.6-0.3-1.1-0.8-1.4c-0.4-0.3-1-0.4-1.6-0.4
		c-0.2,0-0.5,0-0.7,0c-0.2,0-0.5,0-0.7,0L6.7,7.4C6.8,7.4,7,7.4,7.1,7.4z"/>
</g>
</svg>
